<svg width="576" height="502" viewBox="0 0 576 502" fill="none" xmlns="http://www.w3.org/2000/svg">
<path fill-rule="evenodd" clip-rule="evenodd" d="M210.492 1.46974C202.331 5.51774 200.127 17.9397 206.357 24.7817C207.531 26.0717 209.707 27.7587 211.192 28.5317C214.316 30.1567 221.284 30.3857 223.965 28.9507C225.5 28.1297 226.903 29.0887 232.382 34.7007L238.956 41.4367L238.974 50.7467L238.992 60.0567L243.992 65.3427L248.992 70.6297V110.284V149.937H235.992H222.992V143.633C222.992 137.742 222.763 137.107 219.492 133.937L215.992 130.545V110.862V91.1797L218.875 89.9857C220.46 89.3287 223.047 87.4447 224.625 85.7987C227.216 83.0927 227.492 82.1407 227.492 75.8877C227.492 69.2437 227.345 68.8237 223.793 65.2707C220.527 62.0057 219.413 61.5277 214.293 61.1987C209.731 60.9057 207.796 61.2637 205.233 62.8727C195.097 69.2357 195.663 83.7277 206.27 89.4367L209.987 91.4367L209.989 111.709L209.992 131.982L213.992 136.321C217.427 140.047 217.992 141.298 217.992 145.173V149.686L209.742 150.179C205.205 150.45 200.705 151.004 199.742 151.411C198.135 152.091 197.992 151.224 197.992 140.771V129.39L190.22 121.664L182.448 113.937L174.47 113.934L166.492 113.932L164.492 110.184C162.307 106.09 155.481 101.937 150.937 101.937C146.732 101.937 139.901 106.116 137.847 109.946C135.479 114.363 135.478 120.503 137.846 124.953C140.067 129.127 146.217 132.898 150.841 132.921C157.597 132.954 164.477 127.76 165.687 121.714C166.227 119.012 166.422 118.937 172.896 118.937H179.55L185.771 125.214L191.992 131.491V142.821V154.15L187.151 158.794C184.488 161.348 181.57 164.539 180.667 165.887L179.024 168.337L169.643 159.137L160.261 149.937H128.809H97.3559L89.1739 141.755L80.9919 133.573L81.0019 115.505L81.0119 97.4367L84.9609 95.7787C90.2149 93.5717 92.9829 88.9367 92.9879 82.3347C92.9969 70.2737 81.0009 63.2387 70.5959 69.2027C65.2319 72.2787 62.7669 77.0757 63.2479 83.5067C63.7009 89.5697 66.1219 93.2677 71.2159 95.6757L74.9399 97.4367L75.1189 115.437C75.2159 125.337 75.3449 133.996 75.4049 134.679C75.4639 135.362 79.9999 140.424 85.4839 145.929L95.4539 155.937H126.993H158.532L167.697 165.187L176.863 174.437L175.971 178.937C175.48 181.412 175.06 187.599 175.036 192.687L174.992 201.937H147.228H119.463L106.492 188.937L93.5209 175.937H75.7699H58.0189L56.6339 172.687C52.9369 164.008 43.0579 160.524 34.9959 165.055C25.5449 170.367 24.4419 183.089 32.8209 190.14C40.0409 196.215 51.4489 193.741 55.4919 185.223L57.4919 181.009L74.0059 180.973L90.5209 180.937L103.492 193.937L116.463 206.937H145.728H174.992V218.437V229.937H133.005H91.0189L89.6269 226.605C86.8349 219.924 78.6659 216.084 71.4719 218.07C60.3479 221.142 56.5509 235.373 64.7649 243.208C72.6499 250.731 84.4539 248.81 89.0809 239.253L91.1699 234.937H133.081H174.992V250.437V265.937H102.693H30.3939L29.1289 262.439C26.2159 254.384 16.1589 250.89 8.06591 255.122C0.360913 259.152 -2.24109 268.191 2.08591 275.891C7.96991 286.36 23.3909 285.97 28.4919 275.223L30.4919 271.009L102.742 270.973L174.992 270.937V285.937V300.937H152.039H129.086L127.416 297.417C122.525 287.111 107.69 286.213 101.262 295.835C98.2819 300.295 98.1689 308.075 101.016 312.745C102.928 315.881 109.6 319.872 112.992 319.909C119.397 319.979 127.31 314.317 128.523 308.797L129.151 305.937H152.071H174.992V316.937V327.937H137.877H100.761L87.7869 340.878C75.4969 353.136 74.6719 353.766 72.1519 352.805C67.9509 351.203 61.3529 352.681 57.4639 356.096C51.0869 361.695 50.5059 371.036 56.1339 377.446C61.6529 383.732 70.7989 384.495 77.0989 379.194C82.8989 374.314 84.4519 367.223 81.1429 360.733L79.2929 357.105L90.9079 345.521L102.522 333.937H138.757H174.992L175.003 342.687C175.009 347.5 175.293 353.125 175.634 355.187L176.254 358.937H153.862H131.47L114.492 375.937L97.5139 392.937H69.4209H41.3269L38.9099 389.265C35.1159 383.504 31.8299 381.577 26.0239 381.709C16.7079 381.921 10.9919 387.605 10.9919 396.657C10.9919 412.936 33.0719 417.761 39.6229 402.913L41.3769 398.937H69.9449H98.5129L115.992 381.437L133.471 363.937H155.579H177.688L179.479 367.907C180.463 370.091 182.107 372.636 183.131 373.562C184.154 374.489 184.992 375.748 184.992 376.361C184.992 376.973 180.492 381.958 174.992 387.437L164.992 397.399V412.442V427.484L157.22 435.21L149.448 442.937H134.469H119.49L117.446 438.697C111.805 426.993 95.1479 426.778 89.8959 438.342C87.4409 443.747 87.5229 446.735 90.2669 451.924C95.7479 462.288 110.974 462.679 116.492 452.597L118.492 448.942L135.012 448.94L151.532 448.937L160.762 439.668L169.992 430.399V415.399V400.399L179.926 390.502L189.861 380.605L195.676 383.209C199.051 384.721 204.64 386.154 208.992 386.625L216.492 387.437L216.77 396.437L217.048 405.437L205.02 417.421L192.992 429.406V445.4V461.395L201.107 469.553L209.222 477.71L207.991 481.44C204.464 492.127 211.341 501.925 222.374 501.933C231.402 501.94 237.327 495.983 237.36 486.866C237.4 475.834 227.149 469.197 216.046 473.068C212.853 474.181 212.687 474.084 205.397 466.843L197.992 459.487V445.446V431.406L209.992 419.437L221.992 407.468V397.203V386.937H230.992H239.992L239.956 398.687L239.92 410.437L235.706 412.437C227.244 416.453 224.711 427.885 230.705 435.008C240.565 446.725 258.927 439.647 257.673 424.613C257.19 418.817 254.752 415.24 249.153 412.112L244.992 409.787V398.362V386.937H260.492H275.992V403.21V419.484L267.992 427.437C261.217 434.173 259.992 435.895 259.992 438.688C259.992 441.367 259.476 442.182 257.242 443.028C248.267 446.429 244.465 456.669 249.11 464.933C255.763 476.77 272.74 474.828 276.925 461.752C279.155 454.783 275.108 446.193 268.462 443.79C263.042 441.83 263.893 439.486 273.492 429.937L281.992 421.481V404.209V386.937H287.992H293.992V428.937C293.992 464.597 293.777 470.937 292.569 470.937C290.532 470.937 285.177 475.679 283.456 479.006C281.235 483.301 281.597 490.05 284.262 494.039C292.522 506.404 311.992 500.776 311.992 486.024C311.992 479.745 309.213 474.919 304.174 472.445L300.085 470.437L300.039 428.687L299.992 386.937H314.992H329.992V394.736V402.535L326.481 403.805C315.18 407.891 315.123 425.913 326.397 431.033C331.554 433.375 334.43 433.375 339.587 431.033C350.758 425.96 350.997 408.729 339.961 404.095L336.012 402.437L336.002 394.687L335.992 386.937H349.492H362.992L362.966 409.687L362.94 432.437L359.216 434.198C354.122 436.606 351.701 440.304 351.248 446.367C350.349 458.394 362.301 466.547 372.972 461.185C383.825 455.733 383.818 438.654 372.961 434.095L369.012 432.437L369.002 409.687L368.992 386.937L374.242 386.923C377.129 386.916 380.504 386.638 381.742 386.307L383.992 385.704V403.082V420.46L400.253 436.698L416.514 452.937H433.734H450.954L451.551 455.317C451.88 456.625 453.683 459.184 455.559 461.002C458.464 463.818 459.824 464.363 464.731 464.678C469.25 464.968 471.194 464.606 473.751 463.001C478.33 460.127 480.985 455.332 480.985 449.937C480.985 434.073 460.068 429.138 452.492 443.215L450.492 446.932L434.504 446.934L418.516 446.937L403.754 432.2L388.992 417.462V401.22V384.978L392.742 383.045C403.931 377.277 410.945 366.355 411.776 353.407L412.255 345.937H431.899H451.542L458.767 353.211L465.992 360.484V372.197V383.91L462.695 385.288C458.43 387.07 454.241 392.091 453.435 396.388C451.461 406.91 460.954 416.48 471.417 414.517C479.137 413.069 485.062 404.244 483.444 396.603C482.502 392.155 478.335 386.978 474.36 385.317L470.992 383.91V370.652V357.393L462.742 349.186L454.492 340.979L433.492 340.708L412.492 340.437L412.208 329.687L411.924 318.937H447.716H483.507L507.75 343.195L531.992 367.452L531.956 379.445L531.92 391.437L527.723 393.437C514.681 399.652 518.261 419.688 532.76 421.633C541.41 422.793 549.992 415.257 549.992 406.501C549.992 400.37 545.677 394.277 539.742 392.028L536.992 390.987V377.704V364.422L511.735 339.18L486.478 313.937H449.235H411.992V299.937V285.937H430.979H449.965L451.343 289.234C455.672 299.595 469.407 301.923 476.766 293.542C489.036 279.566 470.04 259.77 455.832 271.725C454.12 273.165 452.1 275.827 451.343 277.64L449.965 280.937H430.979H411.992V269.937V258.937H458.784H505.576L509.911 263.354C514.038 267.56 514.192 267.926 513.119 271.003C508.691 283.705 520.336 295.536 532.677 290.873C546.395 285.69 545.414 266.14 531.222 261.888C527.789 260.859 526.332 260.919 522.305 262.251L517.492 263.845L512.461 258.891L507.429 253.937H459.711H411.992V241.437V228.937H478.791H545.59L546.855 232.435C549.774 240.508 559.892 244.022 567.887 239.741C578.796 233.898 578.566 218.298 567.492 212.937C562.181 210.366 559.448 210.417 553.954 213.187C550.693 214.831 548.954 216.571 547.492 219.651L545.492 223.865L478.742 223.901L411.992 223.937V210.937V197.937H449.492C486.563 197.937 486.992 197.96 486.992 199.976C486.992 201.097 488.729 203.876 490.851 206.152C494.382 209.937 495.212 210.324 500.601 210.702C505.553 211.048 507.05 210.738 509.992 208.756C511.917 207.458 514.279 204.831 515.24 202.917C518.756 195.919 516.531 187.525 509.992 183.118C507.106 181.174 505.519 180.828 500.947 181.148C494.374 181.607 490.739 183.902 488.253 189.161L486.492 192.885L449.242 192.911L411.992 192.937V186.519C411.992 182.989 411.719 179.389 411.385 178.519C410.845 177.113 412.764 176.937 428.655 176.937H446.532L455.992 167.437L465.452 157.937H471.462H477.471L494.627 140.803L511.782 123.668L515.036 124.803C519.7 126.428 522.789 126.214 527.492 123.937C537.364 119.158 538.762 105.97 530.163 98.7337C518.69 89.0797 500.717 101.77 506.445 115.48L508.061 119.346L491.788 135.641L475.515 151.937H469.485H463.454L453.492 161.937L443.53 171.937H426.803H410.076L407.448 167.452C406.003 164.986 402.609 160.979 399.906 158.55L394.992 154.131V143.755V133.379L401.269 127.158L407.546 120.937H414.191H420.837L421.981 124.404C424.175 131.052 432.397 135.537 439.465 133.943C447.215 132.195 451.332 126.914 451.36 118.683C451.379 113.292 449.319 109.817 443.9 106.098C437.344 101.598 426.016 104.744 422.826 111.949C421.516 114.908 421.427 114.937 413.474 114.937H405.445L397.719 122.709L389.992 130.481V141.326C389.992 152.131 389.984 152.167 387.742 151.409C386.504 150.991 378.405 150.449 369.742 150.205L353.992 149.761V133.087V116.413L369.254 101.175L384.515 85.9367H390.632C396.488 85.9367 396.802 86.0647 397.994 88.9417C399.732 93.1387 405.267 97.7097 409.593 98.5217C414.153 99.3767 421.461 96.5457 424.205 92.8597C430.079 84.9717 427.096 72.9677 418.356 69.3157C410.688 66.1117 402.098 69.3087 398.54 76.6927L396.494 80.9367H389.482H382.47L365.731 97.6977L348.992 114.458V132.198V149.937H339.992H330.992V119.686V89.4347L335.242 87.4157C346.029 82.2927 346.468 65.8537 335.963 60.4217C331.804 58.2717 324.163 58.5357 320.174 60.9667C315.953 63.5407 312.55 70.8227 313.327 75.6167C314.181 80.8727 317.656 85.6437 322.043 87.5787L325.992 89.3217V119.662V150.003L314.742 149.72L303.492 149.437L303.233 97.6657L302.974 45.8937L305.733 44.8487C318.22 40.1177 319.618 22.5387 307.972 16.6887C297.628 11.4917 285.992 18.6537 285.992 30.2167C285.992 36.5607 288.773 41.2117 294.01 43.6247L297.94 45.4367L297.966 97.6867L297.992 149.937H288.492H278.992V133.912V117.887L281.742 116.849C285.95 115.259 289.912 110.947 291.05 106.72C294.015 95.7087 284.467 85.3117 273.311 87.4047C268.74 88.2617 263.261 93.3067 261.875 97.9327C259.645 105.377 263.53 113.592 270.695 116.586L273.992 117.964V133.95V149.937H264.492H254.992V109.149V68.3617L249.992 63.4367L244.992 58.5117V48.9967V39.4807L237.453 31.8977L229.915 24.3147L231.447 21.3757C234.911 14.7337 232.336 5.94674 225.751 1.93174C221.849 -0.447261 214.789 -0.661259 210.492 1.46974ZM224.592 8.33674C227.042 10.7867 227.992 12.6307 227.992 14.9367C227.992 19.0607 222.43 24.9367 218.526 24.9367C209.252 24.9367 204.5 14.2747 210.915 7.85974C215.142 3.63274 220.06 3.80474 224.592 8.33674ZM307.592 23.3367C311.183 26.9277 311.891 30.3107 309.875 34.2527C305.133 43.5247 290.992 40.6497 290.992 30.4137C290.992 25.4807 296.283 19.9367 300.992 19.9367C303.298 19.9367 305.142 20.8867 307.592 23.3367ZM335.176 66.8097C337.676 69.0437 338.392 70.4897 338.392 73.3037C338.392 79.8617 332.335 84.9927 326.363 83.4937C318.881 81.6157 316.408 72.3667 321.915 66.8597C325.888 62.8867 330.765 62.8687 335.176 66.8097ZM219.886 68.8377C226.56 75.0727 221.768 85.9367 212.345 85.9367C208.732 85.9367 202.982 79.9807 203.027 76.2867C203.141 67.1927 213.313 62.6977 219.886 68.8377ZM85.2419 75.9497C89.0609 80.1407 88.9949 85.0877 85.0689 89.0137C80.1489 93.9327 72.5509 92.8517 69.4139 86.7857C66.7099 81.5577 69.3689 74.8007 74.9919 72.6057C77.9129 71.4657 82.5279 72.9707 85.2419 75.9497ZM419.242 76.9497C425.133 83.4157 420.834 92.9367 412.023 92.9367C401.982 92.9367 398.621 80.8457 407.069 75.1147C411.401 72.1747 415.447 72.7857 419.242 76.9497ZM283.305 95.7417C288.528 101.194 285.813 110.51 278.463 112.355C271.487 114.106 264.697 106.392 267.019 99.3537C268.477 94.9367 271.44 92.9367 276.527 92.9367C279.704 92.9367 281.218 93.5637 283.305 95.7417ZM527.497 103.351C532.758 108.612 531.217 116.692 524.408 119.536C520.226 121.284 517.521 120.675 513.742 117.138C507.517 111.309 512.138 100.937 520.961 100.937C523.985 100.937 525.726 101.58 527.497 103.351ZM154.393 108.331C161.407 111.262 163.12 118.524 158.119 124.121C155.885 126.621 154.439 127.337 151.625 127.337C140.782 127.337 137.348 113.509 146.993 108.689C151.176 106.598 150.342 106.639 154.393 108.331ZM441.012 110.447C446.909 113.497 447.922 121.161 443.069 126.014C439.086 129.997 434.22 130.006 429.781 126.039C421.053 118.241 430.56 105.042 441.012 110.447ZM385.244 161.364C390.775 163.338 395.588 167.394 398.72 172.721L401.492 177.437L401.763 266.401C402.058 363.013 402.221 359.837 396.565 367.252C395.155 369.102 391.636 371.925 388.746 373.526L383.492 376.437L296.089 376.714C199.053 377.021 202.178 377.212 194.303 370.471C192.029 368.524 189.116 364.795 187.83 362.184L185.492 357.437L185.215 270.535C184.897 170.544 184.464 176.04 193.336 167.401C196.18 164.631 200.079 161.865 202 161.253C207.548 159.487 380.276 159.591 385.244 161.364ZM45.3309 168.876C52.4219 171.572 54.3199 179.763 49.0689 185.014C46.9169 187.166 45.1929 187.937 42.5339 187.937C32.1289 187.937 28.5379 175.234 37.4119 169.822C40.9219 167.682 41.8879 167.567 45.3309 168.876ZM206.393 172.842C204.139 173.866 201.214 176.219 199.893 178.07L197.492 181.437L197.226 267.515L196.96 353.593L199.226 356.923C202.368 361.54 206.02 364.02 211.134 365.008C217.964 366.328 372.68 366.151 377.492 364.818C383.215 363.233 386.948 360.244 389.087 355.536C390.853 351.646 390.949 347.223 390.97 268.655C390.989 196.387 390.797 185.405 389.454 182.191C387.382 177.233 385.25 175.003 380.492 172.818C376.713 171.082 371.915 170.981 293.492 170.981C214.685 170.981 210.285 171.075 206.393 172.842ZM380.607 176.499C382.126 177.633 384.296 179.803 385.43 181.322C387.474 184.06 387.492 184.802 387.492 268.305C387.492 347.797 387.391 352.68 385.688 355.279C384.695 356.793 382.445 358.909 380.688 359.981C377.587 361.872 374.992 361.93 293.492 361.93C211.94 361.93 209.399 361.873 206.291 359.977C199.664 355.937 199.992 360.711 199.992 268.437C199.992 179.213 199.84 182.1 204.782 177.627C205.879 176.634 208.063 175.431 209.635 174.954C211.206 174.476 249.697 174.165 295.169 174.261C376.975 174.435 377.875 174.459 380.607 176.499ZM508.203 188.835C510.887 191.233 511.447 192.457 511.447 195.937C511.447 199.417 510.887 200.641 508.203 203.039C504.585 206.272 501.321 206.675 496.972 204.427C490.961 201.318 490.03 193.572 495.098 188.838C499.282 184.93 503.832 184.928 508.203 188.835ZM261.537 210.66C261.158 211.637 252.359 236.093 241.985 265.005C231.61 293.918 222.231 319.918 221.142 322.784L219.162 327.995L231.693 327.716L244.225 327.437L248.211 316.187L252.197 304.937H275.957H299.716L303.686 316.187L307.655 327.437L320.301 327.717L332.947 327.996L330.944 322.717C329.842 319.813 320.225 293.137 309.573 263.437L290.206 209.437L276.216 209.16C263.588 208.91 262.159 209.056 261.537 210.66ZM344.492 268.437V327.937H356.242H367.992V268.437V208.937H356.242H344.492V268.437ZM568.255 220.05C573.903 226.908 569.176 236.48 560.266 236.228C552.997 236.022 548.454 227.006 552.62 221.057C556.274 215.84 564.359 215.319 568.255 220.05ZM81.8059 225.434C85.5559 228.59 86.4189 231.979 84.5879 236.362C83.1829 239.724 78.7379 242.937 75.4919 242.937C72.3469 242.937 67.8119 239.75 66.5039 236.62C64.7019 232.307 65.6349 228.415 69.1869 225.426C73.0929 222.14 77.8949 222.143 81.8059 225.434ZM284.492 260.162C288.892 272.933 292.637 283.957 292.815 284.66C293.068 285.659 289.407 285.937 275.992 285.937C262.577 285.937 258.916 285.659 259.169 284.66C260.219 280.51 275.579 236.941 275.992 236.941C276.267 236.941 280.092 247.39 284.492 260.162ZM22.2419 261.988C26.0629 266.13 25.9979 271.085 22.0689 275.014C18.9479 278.135 13.7469 278.946 9.93691 276.907C5.05091 274.293 3.77591 265.252 7.78191 261.627C12.6289 257.24 17.9839 257.374 22.2419 261.988ZM534.069 269.86C539.456 275.248 537.314 283.862 530.044 286.04C525.368 287.441 520.797 285.394 518.446 280.847C513.444 271.176 526.326 262.117 534.069 269.86ZM468.937 273.937C469.367 273.937 470.906 275.123 472.356 276.573C477.727 281.945 474.705 291.76 467.218 293.259C462.941 294.115 457.769 291.073 456.149 286.749C454.913 283.449 454.964 282.66 456.63 279.249C458.498 275.424 463.742 272.463 466.824 273.492C467.556 273.737 468.507 273.937 468.937 273.937ZM119.081 296.218C124.882 300.127 125.475 306.545 120.497 311.523C114.869 317.151 103.992 312.621 103.992 304.649C103.992 299.325 108.847 294.208 114.094 294C114.975 293.966 117.219 294.963 119.081 296.218ZM74.3679 360.586C77.6469 363.865 78.3179 367.22 76.5449 371.465C75.5269 373.9 73.9549 375.472 71.5199 376.49C61.3439 380.742 52.8999 368.301 60.6809 360.521C64.7099 356.492 70.3009 356.518 74.3679 360.586ZM31.0469 387.967C33.4729 389.265 35.9919 394.056 35.9919 397.372C35.9919 401.108 31.2099 405.892 26.7689 406.598C23.4649 407.123 22.6469 406.792 19.5189 403.664C16.7619 400.907 15.9919 399.334 15.9919 396.46C15.9919 389.311 24.5449 384.486 31.0469 387.967ZM475.305 392.742C478.981 396.578 479.048 402.609 475.455 406.202C472.067 409.589 468.749 410.28 464.464 408.49C460.42 406.8 457.57 401.466 458.574 397.466C460.442 390.024 470.091 387.3 475.305 392.742ZM542.255 400.05C545.002 403.385 545.439 406.776 543.617 410.598C541.729 414.556 536.371 417.321 532.481 416.345C528.861 415.436 524.992 410.393 524.992 406.583C524.992 397.657 536.65 393.245 542.255 400.05ZM336.393 408.331C345.242 412.029 345.223 422.853 336.361 426.556C333.464 427.766 332.52 427.766 329.623 426.556C320.879 422.903 320.729 412.135 329.37 408.374C333.242 406.689 332.474 406.694 336.393 408.331ZM248.842 418.464C254.603 423.312 253.469 431.311 246.552 434.61C236.656 439.329 228.106 426.67 235.915 418.86C239.72 415.055 244.613 414.905 248.842 418.464ZM110.203 437.835C112.887 440.233 113.447 441.457 113.447 444.937C113.447 448.449 112.891 449.638 110.077 452.152C107.155 454.763 106.164 455.089 102.602 454.611C94.1539 453.478 90.8949 443.88 96.9149 437.86C100.898 433.877 105.764 433.868 110.203 437.835ZM373.069 440.86C376.995 444.786 377.061 449.733 373.242 453.924C369.447 458.088 365.401 458.699 361.069 455.759C359.186 454.482 357.23 452.18 356.721 450.644C353.471 440.827 365.71 433.502 373.069 440.86ZM472.592 443.337C479.3 450.045 474.861 459.994 465.195 459.915C458.401 459.859 453.914 451.314 457.388 445.047C460.658 439.147 467.619 438.364 472.592 443.337ZM269.069 450.86C274.487 456.279 271.958 465.064 264.315 467.369C260.799 468.429 255.223 465.49 253.367 461.598C248.605 451.611 261.204 442.995 269.069 450.86ZM304.069 478.86C308.052 482.843 308.061 487.709 304.094 492.148C301.696 494.832 300.472 495.392 296.992 495.392C293.512 495.392 292.288 494.832 289.89 492.148C286.661 488.535 286.254 485.266 288.492 480.937C290.417 477.215 292.566 476.005 297.319 475.967C300.24 475.944 301.838 476.629 304.069 478.86ZM227.012 478.447C232.909 481.497 233.922 489.161 229.069 494.014C225.086 497.997 220.22 498.006 215.781 494.039C213.097 491.641 212.537 490.417 212.537 486.937C212.537 483.457 213.097 482.233 215.781 479.835C219.399 476.602 222.663 476.199 227.012 478.447Z" fill="black"/>
</svg>
