<svg width="515" height="115" viewBox="0 0 515 115" fill="none" xmlns="http://www.w3.org/2000/svg">
<g clip-path="url(#clip0_12294_199)">
<path d="M81.9107 94.9062C77.8204 91.843 71.7534 89.7425 65.6469 89.7425C58.7443 89.7425 51.9376 91.7632 44.1924 99.4864C35.5371 107.954 22.4675 115.271 5.91341 114.903C3.91549 114.859 1.94151 114.798 -0.00146484 114.591L9.51898 97.5903L9.52039 97.5889C15.6072 92.232 22.6239 86.0202 25.3277 84.2597C29.8829 81.2986 40.7264 73.9799 57.8863 78.9253C58.8303 79.1982 59.4094 79.4291 60.4337 79.7985C68.4536 82.6938 81.3936 94.2891 81.9093 94.9048L81.9107 94.9062Z" fill="url(#paint0_linear_12294_199)"/>
<path d="M46.2383 61.4764C51.7107 61.2455 56.5759 62.4083 60.9818 64.4291C68.6762 67.9527 74.677 73.7336 78.7757 78.0954C82.7927 82.3692 89.2106 89.5032 95.0466 94.8895C100.83 100.228 110.421 109.092 122.372 114.015C124.834 115.028 125.199 114.881 125.555 115.003C112.471 110.596 102.284 100.579 95.5059 94.6026C89.5474 89.3507 83.8086 81.3336 79.3717 77.1103C75.173 73.1136 69.4695 66.7324 61.775 63.2074C57.3692 61.1867 52.1306 59.8741 46.6596 60.1274C38.2747 60.515 28.4795 65.1245 23.8567 72.5721C23.8567 72.5735 23.6764 72.8869 23.6764 72.8883L19.7256 79.1828C25.718 68.7252 34.7481 61.9619 46.2383 61.4778V61.4764Z" fill="#8CF4FC"/>
<path d="M140 114.903C110.919 106.092 87.1425 72.4461 87.1425 72.4461C87.1425 72.4461 76.2595 54.8503 60.7312 51.1391C58.9714 50.7193 56.4958 50.3093 54.7121 50.3037C42.8992 50.2617 36.2517 54.9286 31.3809 59.5396L48.738 29.145L62.825 4.47383L63.4111 3.44808C64.5256 1.84579 66.1656 0.0643714 69.8121 -3.22703e-07C73.3993 -0.0615732 75.579 2.36496 76.3018 3.6328L76.8231 4.37308C76.8231 4.37308 76.8245 4.37448 76.8245 4.37727L140 114.903Z" fill="#2463EB"/>
<path d="M124.761 114.903C114.436 114.859 106.117 109.938 100.36 107.291C95.2976 104.962 87.9145 99.2108 82.3265 95.2547C82.3237 95.2533 68.0311 81.6807 57.8879 78.9267C40.6533 74.2471 29.8845 81.2986 25.3293 84.2611C22.6254 86.0216 15.6087 92.232 9.52197 97.5903L19.2664 79.923C19.2664 79.923 19.2664 79.9202 19.2679 79.9188C23.7005 72.4447 30.3931 62.7974 46.2371 61.4778C51.6954 61.023 56.5747 62.4098 60.9806 64.4305C68.675 67.9541 74.7674 73.9099 78.7745 78.0968C82.9704 82.4797 104.896 108.324 124.759 114.906L124.761 114.903Z" fill="url(#paint1_linear_12294_199)"/>
</g>
<path d="M221.052 81.5684H179.687L173.041 97.1532H155.854L191.834 16.9436H209.135L245.002 97.1532H227.698L221.052 81.5684ZM185.532 67.5888H215.324L200.427 32.6398L185.529 67.5888H185.532Z" fill="white"/>
<path d="M297.712 83.4011V97.1507H248.096V91.6499L274.91 53.9505H250.159V40.5447H297.255V45.7017L270.557 83.4011H297.715H297.712Z" fill="white"/>
<path d="M307.566 24.848C307.566 19.5772 311.462 15.9092 316.849 15.9092C322.236 15.9092 326.245 19.5748 326.245 24.848C326.245 30.1212 322.236 33.5568 316.849 33.5568C311.462 33.5568 307.566 29.8912 307.566 24.848ZM309.171 40.5471H324.412V97.1531H309.171V40.5471Z" fill="white"/>
<path d="M383.88 44.5564L377.234 56.3594C374.026 54.1828 371.276 53.3814 368.068 53.3814C359.703 53.3814 354.318 59.226 354.318 69.5376V97.153H339.077V40.547H352.255L353.517 47.6506C357.872 41.8061 363.257 39.3995 369.445 39.3995C374.716 39.3995 380.217 41.1185 383.883 44.5564H383.88Z" fill="white"/>
<path d="M514.854 65.5259V97.1507H499.613V66.4411C499.613 57.7323 494.916 52.6915 487.352 52.6915C479.101 52.6915 473.602 58.7637 473.602 67.4725V97.1507H458.361V40.5447H471.54L472.571 47.0769C477.04 42.1499 483.686 39.3995 491.134 39.3995C505.571 39.3995 514.854 49.4835 514.854 65.5259Z" fill="white"/>
<path d="M416.447 39.4502C397.77 39.4502 385.854 51.7108 385.854 69.0146C385.854 86.3184 397.77 98.579 416.447 98.579C435.124 98.579 447.043 86.3184 447.043 69.0146C447.043 51.7108 435.126 39.4502 416.447 39.4502ZM416.447 85.2846C405.431 85.2846 396.499 78.0008 396.499 69.0122C396.499 60.0236 405.412 52.7564 416.414 52.7422C416.426 52.7422 416.435 52.7422 416.447 52.7422C416.459 52.7422 416.468 52.7422 416.48 52.7422C427.482 52.7564 436.394 60.0355 436.394 69.0122C436.394 77.9889 427.463 85.2846 416.447 85.2846Z" fill="white"/>
<path d="M401.553 67.0474C401.553 63.3325 404.148 60.7501 407.731 60.7501C411.313 60.7501 413.984 63.3325 413.984 67.0474C413.984 70.7622 411.313 73.1809 407.731 73.1809C404.148 73.1809 401.553 70.5985 401.553 67.0474Z" fill="white"/>
<path d="M420.354 66.7474C420.354 63.0325 422.948 60.4501 426.531 60.4501C430.114 60.4501 432.784 63.0325 432.784 66.7474C432.784 70.4622 430.114 72.8809 426.531 72.8809C422.948 72.8809 420.354 70.2985 420.354 66.7474Z" fill="white"/>
<path d="M411.337 67.3925C411.337 69.0402 410.001 70.3759 408.354 70.3759C406.706 70.3759 405.37 69.0402 405.37 67.3925C405.37 65.7448 406.706 64.4091 408.354 64.4091C410.001 64.4091 411.337 65.7448 411.337 67.3925Z" fill="black"/>
<circle cx="427.037" cy="67.3925" r="2.98338" fill="black"/>
<defs>
<linearGradient id="paint0_linear_12294_199" x1="78.9534" y1="106.294" x2="-9.99085" y2="113.632" gradientUnits="userSpaceOnUse">
<stop stop-color="#3FBDFF"/>
<stop offset="0.77" stop-color="#1A23C9"/>
</linearGradient>
<linearGradient id="paint1_linear_12294_199" x1="9.52197" y1="88.1458" x2="124.761" y2="88.1458" gradientUnits="userSpaceOnUse">
<stop stop-color="#2F5DF7"/>
<stop offset="1" stop-color="#5BCDFD"/>
</linearGradient>
<clipPath id="clip0_12294_199">
<rect width="140" height="115" fill="white"/>
</clipPath>
</defs>
</svg>
