<svg width="500" height="413" viewBox="0 0 500 413" fill="none" xmlns="http://www.w3.org/2000/svg">
<g clip-path="url(#clip0_12523_2)">
<path d="M292.539 340.837C277.931 329.836 256.263 322.293 234.454 322.293C209.802 322.293 185.492 329.55 157.831 357.286C126.919 387.696 80.2413 413.975 21.1197 412.653C13.9842 412.492 6.93432 412.276 -0.00488281 411.532L33.9967 350.476L34.0017 350.471C55.7402 331.233 80.7998 308.924 90.4563 302.602C106.725 291.968 145.452 265.684 206.737 283.445C210.109 284.425 212.177 285.254 215.835 286.581C244.477 296.979 290.692 338.621 292.534 340.832L292.539 340.837Z" fill="url(#paint0_linear_12523_2)"/>
<path d="M165.137 220.78C184.681 219.951 202.057 224.127 217.792 231.384C245.272 244.039 266.704 264.8 281.342 280.465C295.688 295.813 318.61 321.433 339.452 340.777C360.109 359.95 394.362 391.782 437.044 409.462C445.835 413.101 447.138 412.573 448.411 413.01C401.684 397.184 365.302 361.211 341.093 339.747C319.812 320.886 299.317 292.094 283.471 276.927C268.475 262.573 248.105 239.657 220.625 226.997C204.89 219.74 186.181 215.026 166.641 215.936C136.696 217.328 101.713 233.882 85.2027 260.628C85.2027 260.633 84.5586 261.759 84.5586 261.764L70.4487 284.369C91.8501 246.813 124.1 222.524 165.137 220.785V220.78Z" fill="#8CF4FC"/>
<path d="M500 412.653C396.138 381.007 311.222 260.176 311.222 260.176C311.222 260.176 272.355 196.984 216.896 183.656C210.611 182.148 201.77 180.676 195.4 180.656C153.211 180.505 129.47 197.265 112.074 213.825L174.064 104.668L224.374 16.0669L226.467 12.3831C230.448 6.62876 236.305 0.231157 249.328 -2.10784e-05C262.14 -0.221148 269.924 8.49327 272.506 13.0465L274.368 15.705C274.368 15.705 274.373 15.7101 274.373 15.7201L500 412.653Z" fill="#2463EB"/>
<path d="M445.574 412.653C408.699 412.492 378.989 394.822 358.428 385.314C340.348 376.951 313.98 356.296 294.023 342.089C294.013 342.084 242.968 293.34 206.742 283.45C145.19 266.644 106.73 291.968 90.4615 302.607C80.8049 308.93 55.7453 331.233 34.0068 350.476L68.8085 287.028C68.8085 287.028 68.8085 287.018 68.8136 287.013C84.6444 260.171 112.378 223.346 165.132 220.785C184.672 219.837 202.052 224.132 217.788 231.389C245.268 244.044 267.026 265.433 281.337 280.47C296.323 296.21 374.627 389.023 445.569 412.663L445.574 412.653Z" fill="url(#paint1_linear_12523_2)"/>
</g>
<defs>
<linearGradient id="paint0_linear_12523_2" x1="281.977" y1="381.734" x2="-35.705" y2="407.8" gradientUnits="userSpaceOnUse">
<stop stop-color="#3FBDFF"/>
<stop offset="0.77" stop-color="#1A23C9"/>
</linearGradient>
<linearGradient id="paint1_linear_12523_2" x1="34.0068" y1="316.558" x2="445.574" y2="316.558" gradientUnits="userSpaceOnUse">
<stop stop-color="#2F5DF7"/>
<stop offset="1" stop-color="#5BCDFD"/>
</linearGradient>
<clipPath id="clip0_12523_2">
<rect width="500" height="413" fill="white"/>
</clipPath>
</defs>
</svg>
